<svg width="54" height="54" viewBox="0 0 54 54" fill="none" xmlns="http://www.w3.org/2000/svg">
<path d="M0 8C0 3.58172 3.58172 0 8 0H46C50.4183 0 54 3.58172 54 8V46C54 50.4183 50.4183 54 46 54H8C3.58172 54 0 50.4183 0 46V8Z" fill="#FFFCFC"/>
<path d="M22.3376 36.9658L22.3078 36.75H22.09H13C12.5359 36.75 12.0908 36.5656 11.7626 36.2374C11.4344 35.9092 11.25 35.4641 11.25 35V17C11.25 16.5359 11.4344 16.0908 11.7626 15.7626C12.0908 15.4344 12.5359 15.25 13 15.25H41C41.4641 15.25 41.9093 15.4344 42.2374 15.7626C42.5656 16.0908 42.75 16.5359 42.75 17V35C42.75 35.4641 42.5656 35.9092 42.2374 36.2374C41.9093 36.5656 41.4641 36.75 41 36.75H30.15H29.7962L29.9143 37.0835C30.2453 38.018 30.7973 38.8587 31.5233 39.5339C32.2437 40.2039 33.1143 40.6912 34.0619 40.955C34.2553 41.0507 34.4091 41.2113 34.4961 41.409C34.5254 41.5002 34.537 41.5963 34.5302 41.692C34.5231 41.7909 34.4965 41.8875 34.4519 41.9761C34.4072 42.0647 34.3455 42.1435 34.2701 42.2081C34.1948 42.2726 34.1074 42.3216 34.013 42.3521L34.0129 42.3519L34.0023 42.3559C31.6833 43.2243 28.912 42.9943 26.6399 41.9744C24.3652 40.9534 22.6419 39.1666 22.3376 36.9658ZM21.8839 27.8839C22.1183 27.6495 22.25 27.3315 22.25 27V25.07C22.25 24.7385 22.1183 24.4205 21.8839 24.1861C21.6495 23.9517 21.3315 23.82 21 23.82H19C18.6685 23.82 18.3505 23.9517 18.1161 24.1861C17.8817 24.4205 17.75 24.7385 17.75 25.07V27C17.75 27.3315 17.8817 27.6495 18.1161 27.8839C18.3505 28.1183 18.6685 28.25 19 28.25H21C21.3315 28.25 21.6495 28.1183 21.8839 27.8839ZM28.8839 27.8839C29.1183 27.6495 29.25 27.3315 29.25 27V25.07C29.25 24.7385 29.1183 24.4205 28.8839 24.1861C28.6495 23.9517 28.3315 23.82 28 23.82H26C25.6685 23.82 25.3505 23.9517 25.1161 24.1861C24.8817 24.4205 24.75 24.7385 24.75 25.07V27C24.75 27.3315 24.8817 27.6495 25.1161 27.8839C25.3505 28.1183 25.6685 28.25 26 28.25H28C28.3315 28.25 28.6495 28.1183 28.8839 27.8839ZM35.8839 27.8839C36.1183 27.6495 36.25 27.3315 36.25 27V25.07C36.25 24.7385 36.1183 24.4205 35.8839 24.1861C35.6495 23.9517 35.3315 23.82 35 23.82H33C32.6685 23.82 32.3505 23.9517 32.1161 24.1861C31.8817 24.4205 31.75 24.7385 31.75 25.07V27C31.75 27.3315 31.8817 27.6495 32.1161 27.8839C32.3505 28.1183 32.6685 28.25 33 28.25H35C35.3315 28.25 35.6495 28.1183 35.8839 27.8839Z" fill="#14B3DA" stroke="#0D2E3F" stroke-width="0.5"/>
<path d="M7.32789 15.2309L7.32784 15.2309C7.16447 15.188 7.06729 15.0212 7.11015 14.8584C7.15311 14.6954 7.31856 14.5978 7.48272 14.6407C8.13738 14.813 8.77429 15.0526 9.3772 15.3533L9.42182 15.2638L9.3772 15.3533C9.66338 15.496 9.56174 15.9311 9.24042 15.9311C9.19775 15.9311 9.14483 15.9166 9.05905 15.8795C9.00954 15.858 8.95574 15.8322 8.89161 15.8014C8.84269 15.778 8.78777 15.7516 8.72417 15.7221C8.43626 15.5886 8.01046 15.4106 7.32789 15.2309Z" fill="#14B3DA" stroke="#0D2E3F" stroke-width="0.2"/>
<path d="M10.6659 14.4388L10.6659 14.4388C10.2065 13.7032 9.65207 13.0308 9.01674 12.4399L9.01665 12.4398C8.89309 12.3246 8.70026 12.3318 8.58606 12.4552L8.58583 12.4554C8.4711 12.5785 8.47785 12.7714 8.60132 12.8861L8.60139 12.8862C9.19685 13.4406 9.71767 14.0718 10.1489 14.7621L10.149 14.7623C10.2363 14.9025 10.4232 14.9497 10.5692 14.8589L10.6659 14.4388ZM10.6659 14.4388C10.7554 14.582 10.7119 14.7701 10.5692 14.8589L10.6659 14.4388ZM10.0641 14.8151C10.1802 15.0016 10.4285 15.0642 10.6221 14.9438L10.7507 14.3858C10.2867 13.6428 9.72663 12.9636 9.08485 12.3666C8.92085 12.2137 8.66456 12.2232 8.51268 12.3872C8.36028 12.5507 8.36925 12.807 8.53325 12.9594C9.12229 13.5078 9.63751 14.1322 10.0641 14.8151Z" fill="#14B3DA" stroke="#0D2E3F" stroke-width="0.2"/>
<path d="M11.4758 13.464L11.5714 13.4936C11.7742 12.8385 11.804 12.1386 11.6584 11.4695L11.6584 11.4693C11.6223 11.3046 11.7265 11.1425 11.8905 11.1065C12.0575 11.0723 12.2186 11.1759 12.254 11.339L12.254 11.339C12.4223 12.1111 12.3882 12.9184 12.1544 13.6739L12.1544 13.6739C12.114 13.8047 11.9934 13.8887 11.8629 13.8887C11.6574 13.8887 11.511 13.6891 11.5714 13.4935L11.4758 13.464ZM11.4758 13.464C11.6736 12.8254 11.7026 12.143 11.5607 11.4907L12.25 13.7034C12.1962 13.8775 12.0359 13.9887 11.8629 13.9887C11.5897 13.9887 11.3957 13.7236 11.4758 13.464Z" fill="#14B3DA" stroke="#0D2E3F" stroke-width="0.2"/>
</svg>
